<?xml version="1.0" encoding="UTF-8"?><svg id="Layer_2" xmlns="http://www.w3.org/2000/svg" viewBox="0 0 476.14 345.91"><defs><style>.cls-1{fill:#fee691;}.cls-2{fill:#47beaa;}</style></defs><g id="Layer_1-2"><rect class="cls-2" width="476.14" height="345.91"/><path class="cls-1" d="M61.91,146.6h23.12l23.12,66.41h-15.5l-5.31-14.7h-27.63l-5.4,14.7h-15.5l23.11-66.41ZM83.79,185.56l-10.27-28.25-10.36,28.25h20.63Z"/><path class="cls-1" d="M136.76,159.44c14.44,0,24.62,7.61,26.21,21.17l-13.81.45c-1.33-5.76-5.49-8.95-12.04-8.95-8.59,0-13.37,5.4-13.37,14.96s4.78,14.87,13.37,14.87c5.93,0,10.18-3.1,11.6-7.97l13.81.45c-1.68,12.75-11.95,20.19-26.04,20.19-17.09,0-27.81-11.06-27.81-27.63s10.72-27.54,28.07-27.54"/><path class="cls-1" d="M187.68,146.6v14.44h22.49l-1.77,12.66h-20.72v19.66c0,6.37,2.83,8.77,8.41,8.77h12.04l-2.39,12.57h-10.19c-15.05,0-22.67-4.33-22.67-20.54v-20.46h-7.79v-12.66h7.79v-9.84l14.79-4.6Z"/><path class="cls-1" d="M231.08,161.03v30.2c0,6.64,4.08,10.89,10.63,10.89,7.71,0,14.17-5.48,14.17-14.7v-26.39h14.78v51.98h-14.78v-12.13c-2.83,8.95-10.81,13.73-20.46,13.73-12.04,0-19.13-7.44-19.13-20.2v-33.38h14.78Z"/><path class="cls-1" d="M284.4,174.41l-4.61-9.84c5.4-3.01,14.43-5.14,22.85-5.14,18.95,0,30.64,10.63,29.84,27.72-.08,2.48-.45,4.79-1.06,6.91,3.72,5.23,5.94,11.16,7.27,16.39l-9.66,3.54c-.89-3.63-2.04-7-3.72-9.83-5.23,6.72-13.37,10.44-24.18,10.44-14.35,0-23.11-6.55-23.11-17.62s9.03-18.06,23.72-18.06c7.18,0,13.2,1.86,17.98,5.4-.88-8.5-6.91-13.99-17.62-13.99-6.2,0-13.81,1.77-17.7,4.08M302.91,189.55c-6.73-.09-11.16,2.74-11.16,7s4.33,7.26,11.07,7.26s11.95-3.2,14.87-8.32c-3.89-3.81-9.03-5.94-14.78-5.94"/><polygon class="cls-1" points="178.69 255.52 141.85 292.14 141.85 302.52 201.75 302.52 201.75 288.13 167.82 288.13 200.16 253.54 200.16 241.15 143.65 241.15 143.65 255.52 178.69 255.52"/><path class="cls-1" d="M270.44,269.77c0-18.83-12.26-30.53-32-30.53s-32.76,12.16-32.76,32.54,12.21,32.64,32.65,32.64c14.62,0,24.63-6.08,29.78-18.07l-12.03-5.72c-2.77,6.24-8.14,9.4-15.95,9.4-10.44,0-16.87-5.59-17.2-14.97v-.39s47.51,0,47.51,0v-4.91ZM223.71,264.93l.13-.48c1.84-6.58,7.69-10.51,15.64-10.51s13.23,3.74,14.72,10.54l.1.45h-30.59Z"/><rect class="cls-1" x="116.42" y="241.15" width="16.96" height="14.59"/><rect class="cls-1" x="116.42" y="261.64" width="16.96" height="40.88"/><path class="cls-1" d="M105.66,289.83c1.43-2.77,2.15-5.66,2.15-8.57,0-2.57-.39-5.04-1.17-7.34-.75-2.21-2.13-4.28-4.11-6.15-2.03-1.91-4.87-3.62-8.43-5.08-3.61-1.49-8.38-2.7-14.17-3.59l-12.64-2c-1.15-.18-2.33-.45-3.51-.8-1.23-.36-2.35-.83-3.32-1.38-1.06-.6-1.93-1.38-2.6-2.3-.73-1-1.09-2.14-1.09-3.38s.28-2.44.83-3.63c.56-1.23,1.48-2.31,2.74-3.21,1.18-.85,2.76-1.54,4.68-2.05,1.87-.49,4.15-.74,6.76-.74,3.07,0,5.7.39,7.83,1.15,2.14.78,3.9,1.78,5.24,2.98,1.36,1.22,2.38,2.56,3.05,3.99.38.81.68,1.58.9,2.31l19.36-3.17c-.3-1.82-.93-3.84-1.9-6.03-1.2-2.71-3.2-5.31-5.94-7.74-2.77-2.45-6.49-4.57-11.05-6.29-4.56-1.72-10.36-2.59-17.23-2.59-5.92,0-11.23.67-15.78,2-4.52,1.32-8.38,3.14-11.48,5.4-3.05,2.23-5.39,4.84-6.95,7.75-1.54,2.89-2.33,6.04-2.33,9.36,0,2.61.53,5.12,1.56,7.46,1.03,2.32,2.7,4.48,4.98,6.41,2.33,1.98,5.38,3.77,9.06,5.33,3.71,1.57,8.27,2.82,13.55,3.72l11.65,2.13c4.09.71,6.87,1.64,8.5,2.83,1.82,1.34,2.74,2.9,2.74,4.65,0,2.31-1.4,4.32-4.17,5.98-2.55,1.53-6.34,2.28-11.59,2.28-6.55,0-11.31-1.09-14.55-3.33-2.72-1.88-4.45-4-5.14-6.33l-18.16,3.14c.31,1.66.98,3.54,1.99,5.62,1.28,2.63,3.38,5.18,6.24,7.58,2.89,2.41,6.77,4.49,11.55,6.18,4.78,1.69,10.78,2.54,17.83,2.54,6.24,0,11.72-.69,16.27-2.06,4.52-1.36,8.31-3.19,11.29-5.45,2.93-2.23,5.15-4.77,6.58-7.56Z"/><rect class="cls-1" x="342.77" y="142.53" width="14.78" height="70.43"/></g></svg>